# xmcd
#
# Track frame offsets: 
#        150
#        16200
#        30017
#        52052
#        68929
#        82352
#        94507
#        107965
#        120872
#        135562
#        157762
#        170587
#        187312
#        203437
#        217537
#        235687
#        249262
#
# Disc length: 3626 seconds
#
# Revision: 0
# Processed by: cddbd v1.5.2PL0 Copyright (c) Steve Scherf et al.
# Submitted via: ExactAudioCopyFreeDBPlugin 1.0
#
DISCID=d10e2811
DTITLE=Толкунова Валентина - Толкунова Валентина Сборник
DYEAR=2010
DGENRE=Folk
TTITLE0=Мы на лодочке катались
TTITLE1=Ничего не кончается
TTITLE2=А любовь то лебедем
TTITLE3=Поговори со мною мама
TTITLE4=Вечер школьных друзей
TTITLE5=Радуга
TTITLE6=Не судите меня
TTITLE7=Ах Наташа
TTITLE8=Довоенное танго
TTITLE9=Ночной звонок
TTITLE10=Я деревенская
TTITLE11=Ярмарка
TTITLE12=Домик в деревне
TTITLE13=Старый дворик
TTITLE14=Осень
TTITLE15=Песня о женщинах
TTITLE16=Старый вальс
EXTD=
EXTT0=
EXTT1=
EXTT2=
EXTT3=
EXTT4=
EXTT5=
EXTT6=
EXTT7=
EXTT8=
EXTT9=
EXTT10=
EXTT11=
EXTT12=
EXTT13=
EXTT14=
EXTT15=
EXTT16=
PLAYORDER=
